<svg width="161" height="157" viewBox="0 0 161 157" fill="none" xmlns="http://www.w3.org/2000/svg">
<path d="M151.322 66.2458C151.322 102.83 121.659 132.492 85.0749 132.492C48.4903 132.492 18.8281 102.83 18.8281 66.2458C18.8281 29.6618 48.4903 0 85.0749 0C121.659 0 151.322 29.6618 151.322 66.2458Z" fill="url(#paint0_radial_139_987)"/>
<path d="M136.337 14.5927C136.337 21.821 130.47 27.6888 123.241 27.6888C116.013 27.6888 110.145 21.821 110.145 14.5927C110.145 7.36431 116.013 1.49658 123.241 1.49658C130.47 1.49658 136.337 7.36431 136.337 14.5927Z" fill="url(#paint1_radial_139_987)"/>
<path d="M149.247 5.68042C149.247 8.19759 147.206 10.2386 144.688 10.2386C142.171 10.2386 140.13 8.19759 140.13 5.68042C140.13 3.16325 142.171 1.12231 144.688 1.12231C147.206 1.12231 149.247 3.16325 149.247 5.68042Z" fill="url(#paint2_radial_139_987)"/>
<path d="M15.7326 134.652C15.7326 137.169 13.6916 139.21 11.1744 139.21C8.65719 139.21 6.61621 137.169 6.61621 134.652C6.61621 132.134 8.65719 130.094 11.1744 130.094C13.6916 130.111 15.7326 132.151 15.7326 134.652Z" fill="url(#paint3_radial_139_987)"/>
<path d="M132.494 78.1003C132.494 114.684 102.831 144.346 66.2468 144.346C29.6452 144.346 0 114.684 0 78.1003C0 41.5163 29.6622 11.8545 66.2468 11.8545C102.831 11.8545 132.494 41.5163 132.494 78.1003Z" fill="url(#paint4_radial_139_987)"/>
<path d="M160.54 90.7541C160.54 127.338 130.878 157 94.2932 157C57.7086 157 28.0464 127.338 28.0464 90.7541C28.0464 54.1701 57.7086 24.5083 94.2932 24.5083C130.878 24.5083 160.54 54.1701 160.54 90.7541Z" fill="url(#paint5_radial_139_987)"/>
<path opacity="0.3" d="M139.909 85.754C139.909 116.419 115.043 141.285 84.3776 141.285C53.6949 141.285 28.8459 116.419 28.8459 85.754C28.8459 55.0887 53.7119 30.2231 84.3776 30.2231C115.043 30.2231 139.909 55.0887 139.909 85.754Z" fill="#231F20"/>
<path opacity="0.6" d="M139.909 83.0665C139.909 113.732 115.043 138.597 84.3776 138.597C53.6949 138.597 28.8459 113.732 28.8459 83.0665C28.8459 52.4012 53.7119 27.5356 84.3776 27.5356C115.043 27.5356 139.909 52.4012 139.909 83.0665Z" fill="#231F20"/>
<path d="M139.909 79.8011C139.909 110.466 115.043 135.332 84.3776 135.332C53.6949 135.332 28.8459 110.466 28.8459 79.8011C28.8459 49.1358 53.7119 24.2703 84.3776 24.2703C115.043 24.2703 139.909 49.1358 139.909 79.8011Z" fill="white"/>
<path d="M139.909 78.1004C139.909 108.766 115.043 133.631 84.3776 133.631C53.6949 133.631 28.8459 108.766 28.8459 78.1004C28.8459 47.4351 53.7119 22.5696 84.3776 22.5696C115.043 22.5696 139.909 47.4351 139.909 78.1004Z" fill="white"/>
<path d="M118 78C118 96.7755 102.775 112 84 112C65.2141 112 50 96.7755 50 78C50 59.2245 65.2245 44 84 44C102.775 44 118 59.2245 118 78Z" fill="#FFAEA1"/>
<g opacity="0.4">
<path opacity="0.4" d="M84.3775 133.852C53.6438 133.852 28.6248 108.85 28.6248 78.1001C28.6248 47.3668 53.6268 22.3481 84.3775 22.3481C115.111 22.3481 140.13 47.3498 140.13 78.1001C140.13 108.85 115.111 133.852 84.3775 133.852ZM84.3775 22.7733C53.8649 22.7733 29.05 47.5879 29.05 78.1001C29.05 108.612 53.8649 133.427 84.3775 133.427C114.89 133.427 139.705 108.612 139.705 78.1001C139.705 47.5879 114.873 22.7733 84.3775 22.7733Z" fill="white"/>
</g>
<defs>
<radialGradient id="paint0_radial_139_987" cx="0" cy="0" r="1" gradientUnits="userSpaceOnUse" gradientTransform="translate(145.839 -15.0647) scale(178.015 178.012)">
<stop stop-color="#FFD2A4"/>
<stop offset="1" stop-color="#FF0095"/>
</radialGradient>
<radialGradient id="paint1_radial_139_987" cx="0" cy="0" r="1" gradientUnits="userSpaceOnUse" gradientTransform="translate(135.249 -1.48831) scale(35.2004 35.1999)">
<stop stop-color="#FFD2A4"/>
<stop offset="1" stop-color="#FF0095"/>
</radialGradient>
<radialGradient id="paint2_radial_139_987" cx="0" cy="0" r="1" gradientUnits="userSpaceOnUse" gradientTransform="translate(148.863 0.0928249) scale(12.2318 12.2316)">
<stop stop-color="#FFD2A4"/>
<stop offset="1" stop-color="#FF0095"/>
</radialGradient>
<radialGradient id="paint3_radial_139_987" cx="0" cy="0" r="1" gradientUnits="userSpaceOnUse" gradientTransform="translate(15.3496 129.07) scale(12.2318 12.2316)">
<stop stop-color="#FFD2A4"/>
<stop offset="1" stop-color="#FF0095"/>
</radialGradient>
<radialGradient id="paint4_radial_139_987" cx="0" cy="0" r="1" gradientUnits="userSpaceOnUse" gradientTransform="translate(43.9237 -0.32267) scale(204.417 204.414)">
<stop stop-color="#FFD2A4"/>
<stop offset="1" stop-color="#FF0095"/>
</radialGradient>
<radialGradient id="paint5_radial_139_987" cx="0" cy="0" r="1" gradientUnits="userSpaceOnUse" gradientTransform="translate(185.58 132.359) scale(187.107 187.105)">
<stop stop-color="#FFD2A4"/>
<stop offset="1" stop-color="#FF0095"/>
</radialGradient>
</defs>
</svg>
