<svg width="173" height="140" viewBox="0 0 173 140" fill="none" xmlns="http://www.w3.org/2000/svg">
<path opacity="0.5" d="M25.1255 125.459C25.1255 125.459 10.2319 107.554 13.1325 78.0658C16.1268 47.5369 31.8803 31.289 52.434 37.4549C69.2352 42.4958 80.0554 39.2631 97.4272 24.8566C125.916 1.23492 162.638 26.8064 153.03 72.575C148.378 94.7219 167.892 105.67 151.56 125.501L25.1255 125.459Z" fill="#E6EDFE"/>
<path opacity="0.2" d="M129.146 118.645C125.053 115.856 125.23 105.388 130.277 100.814C134.263 97.1791 137.794 100.46 143.731 97.1728C151.027 93.1283 149.751 85.9225 156.491 81.5182C162.782 77.4168 171.487 77.1771 172.832 79.7325C174.235 82.3954 166.535 86.0487 160.799 97.7787C156.775 106 158.778 107.843 154.931 111.843C150.187 116.79 143.504 117.755 134.939 118.999C131.477 119.51 130.22 119.377 129.146 118.645Z" fill="#C4CAE8"/>
<path opacity="0.4" d="M150.042 74.9057C145.803 75.7197 141.982 77.9724 139.241 81.2849C134.534 87.1467 137.794 91.1472 134.181 99.0723C129.885 108.493 121.585 110.922 122.558 112.916C123.638 115.137 135.103 114.601 140.207 107.994C144.363 102.618 140.39 98.2711 144.079 90.5918C148.703 80.9631 159.447 78.4519 158.468 75.8459C157.799 74.0791 152.581 74.4389 150.042 74.9057Z" fill="#C4CAE8"/>
<path d="M132.735 115.042C132.602 115.042 132.489 114.96 132.451 114.834C132.407 114.676 132.495 114.512 132.653 114.468C143.511 111.332 150.156 106.713 152.405 100.738C152.828 99.5387 153.144 98.3082 153.346 97.0526C153.706 95.1661 154.085 93.2101 155.475 90.8944C157.989 86.711 162.398 83.6822 168.595 81.8775C168.753 81.8335 168.91 81.9217 168.955 82.0796C168.999 82.2373 168.91 82.3951 168.753 82.4392C162.708 84.1934 158.406 87.14 155.968 91.1847C154.629 93.412 154.281 95.2291 153.915 97.1537C153.7 98.4408 153.378 99.7028 152.936 100.933C150.624 107.091 143.846 111.83 132.798 115.023L132.735 115.042Z" fill="white"/>
<path opacity="0.4" d="M142.058 109.635C131.282 113.459 124.909 115.73 125.086 118.153C125.351 121.422 137.744 125.895 145.754 121.51C150.618 118.847 150.63 114.689 158.804 108.588C162.922 105.515 165.619 104.562 165.392 103.95C164.918 102.669 152.392 105.963 142.058 109.635Z" fill="#C4CAE8"/>
<path d="M135.42 120.254C133.12 120.229 130.84 119.901 128.629 119.276C128.471 119.232 128.383 119.074 128.421 118.917C128.44 118.841 128.49 118.778 128.56 118.74C128.629 118.702 128.711 118.689 128.787 118.715C134.238 120.178 138.736 119.989 142.16 118.115C143.928 117.137 145.059 115.951 146.366 114.556C148.002 112.72 149.86 111.086 151.894 109.692C154.338 108.038 157.01 106.738 159.821 105.83C159.897 105.805 159.972 105.811 160.042 105.849C160.112 105.887 160.162 105.944 160.187 106.019C160.238 106.171 160.156 106.335 159.998 106.385C157.237 107.281 154.622 108.556 152.216 110.177C150.22 111.547 148.4 113.156 146.79 114.96C145.451 116.386 144.288 117.623 142.444 118.639C140.271 119.749 137.858 120.311 135.42 120.254ZM125.705 111.963C125.641 111.963 125.585 111.919 125.566 111.856C125.54 111.78 125.585 111.698 125.667 111.673C129.943 110.442 133.19 108.366 135.325 105.489C137.46 102.612 137.776 99.9933 138.18 97.1476C138.382 95.3429 138.749 93.5636 139.279 91.8285C141.237 85.9415 146.455 80.9251 154.761 76.8994C154.837 76.8679 154.919 76.8994 154.957 76.9688C154.995 77.0445 154.963 77.1265 154.888 77.1644C146.657 81.146 141.496 86.1117 139.557 91.9232C139.027 93.6393 138.66 95.3998 138.464 97.1855C138.06 100.069 137.681 102.801 135.552 105.66C133.424 108.518 130.082 110.707 125.755 111.957L125.705 111.963Z" fill="white"/>
<path d="M148.236 80.9187C148.217 80.925 148.192 80.925 148.173 80.9187C148.135 80.8998 148.109 80.8681 148.097 80.8303C148.084 80.7924 148.09 80.7483 148.109 80.7168L149.708 77.4545C149.746 77.3788 149.834 77.3473 149.91 77.3852C149.979 77.4294 150.011 77.5177 149.973 77.5934L148.369 80.8557C148.343 80.8935 148.293 80.9187 148.236 80.9187ZM145.387 83.2912C145.318 83.2912 145.254 83.2407 145.248 83.165C145.235 83.0957 145.286 83.0261 145.349 83.0073L148.627 82.1113C148.665 82.0986 148.703 82.1049 148.735 82.1238C148.766 82.1428 148.792 82.1743 148.798 82.2121C148.817 82.2878 148.773 82.3698 148.697 82.3889L145.419 83.2849L145.387 83.2912ZM143.505 84.9507H143.46C143.422 84.938 143.385 84.9128 143.366 84.8813C143.347 84.8435 143.34 84.8054 143.353 84.7676L144.932 79.1457C144.945 79.1078 144.97 79.0698 145.008 79.051C145.046 79.0319 145.09 79.0258 145.128 79.0319C145.21 79.0573 145.261 79.1393 145.242 79.215L143.663 84.8435C143.637 84.9065 143.574 84.9507 143.505 84.9507ZM141.837 87.79C141.78 87.79 141.73 87.7585 141.704 87.708C141.685 87.6765 141.685 87.6323 141.698 87.6008C141.711 87.563 141.736 87.5376 141.774 87.5188L144.799 86.1433C144.875 86.1116 144.957 86.1433 144.995 86.2063C145.033 86.2756 145.002 86.3577 144.926 86.3955L141.894 87.7712L141.837 87.79ZM140.132 90.396C140.068 90.396 140.012 90.3391 140.005 90.2698L139.317 84.6413C139.31 84.5595 139.361 84.49 139.43 84.4775C139.462 84.4712 139.5 84.4775 139.525 84.5027C139.55 84.5278 139.569 84.5595 139.576 84.5974L140.258 90.2319C140.264 90.2698 140.252 90.3076 140.233 90.3391C140.214 90.3708 140.182 90.3897 140.144 90.396H140.132ZM138.988 93.2417C138.944 93.2417 138.9 93.2166 138.868 93.1787C138.843 93.147 138.837 93.1092 138.843 93.0713C138.849 93.0335 138.868 93.002 138.9 92.9768L141.926 90.9009C141.995 90.8567 142.083 90.8755 142.134 90.9387C142.178 91.0081 142.166 91.0964 142.096 91.1406L139.07 93.2102C139.045 93.2354 139.02 93.2417 138.988 93.2417ZM138.23 97.2737C138.173 97.2737 138.116 97.2359 138.098 97.179L136.967 94.1882C136.935 94.1377 136.942 94.0747 136.973 94.0242C137.005 93.9737 137.062 93.9485 137.119 93.961C137.175 93.9737 137.219 94.0178 137.232 94.0747L138.363 97.0655C138.376 97.1033 138.382 97.1475 138.363 97.179C138.35 97.2168 138.319 97.2483 138.287 97.261C138.262 97.2674 138.243 97.2737 138.23 97.2737ZM138.034 98.9268C137.99 98.9268 137.946 98.908 137.914 98.8638C137.87 98.8006 137.889 98.7122 137.959 98.6682L141.256 96.5669C141.319 96.5418 141.395 96.5606 141.433 96.6175C141.471 96.6743 141.458 96.75 141.408 96.8006L138.11 98.9017C138.085 98.9205 138.06 98.9332 138.034 98.9268ZM137.036 102.959C136.967 102.959 136.904 102.908 136.891 102.845L136.247 99.6021C136.228 99.5452 136.241 99.4883 136.285 99.4442C136.329 99.4063 136.392 99.3938 136.443 99.4127C136.499 99.438 136.531 99.4883 136.531 99.5452L137.182 102.782C137.194 102.858 137.144 102.934 137.068 102.952L137.036 102.959ZM135.906 105.092C135.849 105.092 135.805 105.06 135.773 105.01C135.735 104.94 135.767 104.852 135.836 104.814L139.342 102.978C139.374 102.959 139.418 102.952 139.449 102.965C139.487 102.978 139.519 103.003 139.532 103.041C139.569 103.11 139.544 103.199 139.475 103.236L135.982 105.073C135.962 105.085 135.931 105.092 135.906 105.092Z" fill="white"/>
<path opacity="0.62" d="M41.291 123.733C38.1265 126.106 30.2497 123.266 28.0767 118.301C26.346 114.357 29.7443 112.533 28.7779 107.202C27.5903 100.652 21.798 99.7624 20.2062 93.5472C18.7154 87.7423 20.7746 81.098 23.0612 80.7383C25.4364 80.3597 26.2258 87.1175 33.6352 94.4623C38.8213 99.611 40.7289 98.57 42.7692 102.495C45.2959 107.347 44.3104 112.647 43.0534 119.437C42.5419 122.194 42.1122 123.115 41.291 123.733Z" fill="#D5DCF3"/>
<path opacity="0.62" d="M41.1437 119.992C41.6743 108.628 38.6422 103.725 35.7365 101.34C33.5131 99.5228 31.3401 99.1632 29.0979 96.5193C25.9206 92.7649 25.5479 87.8814 25.7058 84.4424" stroke="white" stroke-width="0.25" stroke-linecap="round" stroke-linejoin="round"/>
<path opacity="0.62" d="M18.5703 107.379C8.36887 101.801 2.28592 98.4943 0.567794 100.286C-1.75042 102.709 3.22078 115.152 12.0009 118.244C17.3259 120.125 20.5221 117.304 30.7108 119.374C35.8463 120.415 38.4045 121.815 38.7141 121.229C39.3774 119.986 28.3674 112.729 18.5703 107.379Z" fill="#D5DCF3"/>
<path opacity="0.62" d="M4.80273 103.561C8.07476 110.123 11.7637 112.471 14.4609 113.423C18.4594 114.837 21.3587 113.562 27.4732 115.095C30.3536 115.821 33.1203 116.951 35.6848 118.446" stroke="white" stroke-width="0.25" stroke-linecap="round" stroke-linejoin="round"/>
<path opacity="0.62" d="M5.20424 94.2288C5.26109 95.0428 5.6464 99.6805 9.29742 103.347C13.5359 107.599 17.0164 105.378 22.992 108.962C30.0982 113.209 31.273 119.992 32.947 119.405C34.8103 118.755 35.423 109.644 30.6351 105.012C26.7314 101.239 22.916 103.984 17.1427 100.375C9.90382 95.8443 8.88054 87.1304 6.72023 87.6667C5.25477 88.0264 5.07791 92.1782 5.20424 94.2288Z" fill="#C4CAE8"/>
<path opacity="0.62" d="M29.9621 108.117L28.8376 105.138L29.9621 108.117ZM34.4785 116.811C34.0679 114.452 33.114 111.069 30.3915 108.533C27.0879 105.466 23.6264 105.889 19.8301 104.129C16.5833 102.621 12.4459 99.2134 9.38867 90.5752L34.4785 116.811ZM11.9027 96.1468L9.54658 94.6009L11.9027 96.1468ZM13.4503 98.6961L13.0397 95.907L13.4503 98.6961ZM14.4357 100.185L10.1972 98.5257L14.4357 100.185ZM16.6591 101.92L15.8001 99.3963L16.6591 101.92ZM18.4847 103.397L13.9367 103.492L18.4847 103.397ZM20.7713 104.615L19.3879 102.028L20.7713 104.615ZM23.8348 105.504L21.4345 106.167L23.8348 105.504ZM25.2688 105.883L23.816 102.974L25.2688 105.883ZM28.1997 106.962L25.534 107.176L28.1997 106.962Z" stroke="white" stroke-width="0.25" stroke-linecap="round" stroke-linejoin="round"/>
<path d="M131.392 74.5234H41.6074L62.6801 59.23H109.478L131.392 74.5234Z" fill="#E6EDFE"/>
<path d="M131.164 74.5234H41.8431C41.7356 74.5234 41.6357 74.4123 41.6127 74.257C41.5897 74.1017 41.6436 73.9462 41.7356 73.8797L62.6994 59.2632C62.7303 59.2411 62.7687 59.23 62.7993 59.23H109.356C109.387 59.23 109.425 59.2411 109.456 59.2632L131.257 73.8797C131.356 73.9462 131.41 74.1017 131.387 74.257C131.372 74.4123 131.272 74.5234 131.164 74.5234ZM42.8717 73.8464H130.105L109.318 59.907H62.8608L42.8717 73.8464Z" fill="#FFFBF8"/>
<path d="M42.1553 86.7207V75.0698H130.845V86.7207H42.1553Z" fill="#C4CAE8" stroke="#FFFBF8" stroke-width="0.5"/>
<path d="M104.956 69.8975H68.0376C67.9513 69.8975 67.8867 69.8275 67.8867 69.7341V68.4813C67.8867 68.3879 67.9513 68.3179 68.0376 68.3179H104.964C105.05 68.3179 105.115 68.3879 105.115 68.4813V69.7341C105.107 69.8275 105.043 69.8975 104.956 69.8975Z" fill="#002265"/>
<path d="M42.1553 122.405V85.2656H130.845V122.405H42.1553Z" fill="#D5DCF3" stroke="#FFFBF8" stroke-width="0.5"/>
<path d="M8.93388 125.501C8.83547 125.501 8.75977 124.541 8.75977 123.285V122.62C8.75977 121.438 8.83547 120.403 8.93388 120.403H164.067C164.158 120.403 164.241 121.364 164.241 122.62V123.285C164.241 124.467 164.165 125.501 164.067 125.501" fill="#E6EDFE"/>
</svg>
